<svg id="Solid" height="512" viewBox="0 0 512 512" width="512" xmlns="http://www.w3.org/2000/svg"><path d="m271.545 96h31.874a56.078 56.078 0 0 0 -55.419-48h-2.815a71.958 71.958 0 0 1 26.36 48z"/><path d="m162.87 112-130.87 107.775v27.144l161.903-134.919z"/><path d="m237.675 240.351a7.982 7.982 0 0 1 5.3.221l67.944 27.182 68.081-95.318-69.977-60.436h-84.183zm50.325-104.351a40 40 0 1 1 -40 40 40.045 40.045 0 0 1 40-40z"/><path d="m288 200a24 24 0 1 0 -24-24 24.028 24.028 0 0 0 24 24zm0-32a8 8 0 1 1 -8 8 8 8 0 0 1 8-8z"/><path d="m348.794 282.907 58.907-85.684-16.54-14.285-64.952 90.933z"/><path d="m192 312a7.994 7.994 0 0 1 1.216-4.24l30.276-48.442-13.952-139.518-177.54 147.947v92.253h160z"/><path d="m32 408h160v56h-160z"/><path d="m368 336v-11.056l-16-8v19.056a40.045 40.045 0 0 1 -40 40h-280v16h280a56.064 56.064 0 0 0 56-56z"/><path d="m255.419 96a56.078 56.078 0 0 0 -55.419-48h-3.056l24 48z"/><path d="m373.261 309.686 72.445-108.667-12.562-12.562-77.343 112.499z"/><path d="m397.386 302.343 33.534 13.409a8.037 8.037 0 0 0 9.627-2.994l32.967-49.446a8.005 8.005 0 0 0 -1.429-10.484l-26.456-22.85zm58.614-38.343a8 8 0 1 1 -8-8 8 8 0 0 1 8 8z"/></svg>