<svg id="Capa_1" enable-background="new 0 0 512 512" height="512" viewBox="0 0 512 512" width="512" xmlns="http://www.w3.org/2000/svg"><g><path d="m507.6 4.399c-4.148-4.147-10.329-5.501-15.829-3.464-5.447 2.016-133.943 49.932-182.563 98.552l-157.29 157.29c-.002.002-.006.002-.009 0l-3.662-3.662c-1.367-1.367-2.946-2.528-4.724-3.287-5.913-2.526-12.414-1.081-16.646 3.151l-41.237 41.238c-5.864 5.864-5.864 15.37 0 21.234l23.633 23.633c.002.002.002.006 0 .009l-50.187 50.187c-.002.002-.004.002-.006.001-5.604-1.994-11.646-2.832-17.829-2.384-10.567.764-20.432 5.586-27.926 13.076l-.606.605c-16.956 16.949-16.959 44.435-.007 61.388l37.325 37.325c8.598 8.599 20.17 13.145 32.396 12.678 11.136-.425 21.633-5.332 29.511-13.214l.068-.068c7.299-7.302 12.09-16.854 13.022-27.137.643-7.09-.415-14.004-2.963-20.31-.001-.002 0-.005.001-.006l49.67-49.67c.002-.002.006-.002.009 0l23.633 23.633c2.932 2.932 6.774 4.398 10.617 4.398s7.685-1.466 10.617-4.398l41.237-41.238c5.864-5.864 5.864-15.37 0-21.233l-2.634-2.634c-.002-.002-.002-.006 0-.009l157.29-157.29c48.62-48.62 96.535-177.117 98.551-182.563 2.038-5.502.685-11.685-3.462-15.831zm-416.327 472.56c-2.527 2.529-5.255 4.461-8.905 4.908-4.063.497-8.203-.919-11.1-3.816l-37.325-37.325c-3.984-3.984-5.032-10.245-2.563-15.311 2.328-4.779 7.449-8.475 12.805-8.599 3.629-.084 7.196 1.338 9.764 3.905l37.105 37.106c5.24 5.242 5.542 13.81.219 19.132zm11.989-49.389-19.995-19.995c-.002-.002-.002-.006 0-.009l47.241-47.241c.002-.002.006-.002.008 0l19.995 19.995c.002.002.002.006 0 .009l-47.241 47.241c-.002.002-.006.002-.008 0zm102.737-34.23-88.503-88.502c-.002-.002-.002-.006 0-.009l19.995-19.995c.002-.002.006-.002.009 0l88.503 88.503c.002.002.002.006 0 .008l-19.995 19.995c-.003.002-.007.002-.009 0zm185.281-211.783-157.29 157.29c-.002.002-.006.002-.009 0l-60.829-60.829c-.002-.002-.002-.006 0-.009l157.29-157.29c30.084-30.084 98.776-61.66 139.592-78.762.005-.002.01.003.008.008-17.103 40.815-48.679 109.508-78.762 139.592z"/><path d="m246.256 265.743c2.932 2.932 6.774 4.398 10.617 4.398 3.842 0 7.685-1.466 10.617-4.398l142.396-142.395c6.262-6.261 5.837-16.675-1.273-22.373-6.015-4.82-14.789-4.031-20.239 1.419l-142.118 142.115c-5.864 5.864-5.864 15.37 0 21.234z"/></g></svg>