<svg id="Capa_1" enable-background="new 0 0 512 512" height="512" viewBox="0 0 512 512" width="512" xmlns="http://www.w3.org/2000/svg"><g><path d="m412.585 223.155c1.757-11.217 7.406-21.43 16.09-28.772 52.954-44.778 83.325-110.159 83.325-179.383 0-8.284-6.716-15-15-15-33.445 0-65.756 6.888-96.037 20.471-21.997 9.867-42.085 22.874-59.961 38.795v-44.265c0-8.284-6.716-15-15-15s-15 6.716-15 15v47.169c-1.47-.101-2.949-.17-4.444-.17-20.078 0-38.499 9.117-50.558 24.443-12.059-15.326-30.48-24.443-50.557-24.443-1.494 0-2.972.07-4.441.17v-47.169c0-8.284-6.716-15-15-15s-15 6.716-15 15v44.268c-17.878-15.923-37.966-28.931-59.964-38.798-30.282-13.583-62.593-20.471-96.038-20.471-8.284 0-15 6.716-15 15 0 69.224 30.371 134.605 83.325 179.383 8.684 7.343 14.333 17.556 16.09 28.772-62.418 44.114-99.415 115.173-99.415 191.845 0 8.284 6.716 15 15 15 31.049 0 61.696-6.145 90.106-17.934-2.729 18.066-4.106 36.397-4.106 54.934 0 8.284 6.716 15 15 15 29.181 0 58.155-7.935 83.311-22.599 7.962 15.069 19.153 28.197 32.987 38.572l14.702 11.027c2.667 2 5.833 3 9 3s6.333-1 9-3l14.702-11.026c13.834-10.375 25.025-23.503 32.987-38.572 25.156 14.663 54.13 22.598 83.311 22.598 8.284 0 15-6.716 15-15 0-18.537-1.377-36.868-4.106-54.934 28.41 11.789 59.057 17.934 90.106 17.934 8.284 0 15-6.716 15-15 0-76.672-36.997-147.731-99.415-191.845zm-176.336-112.116 6.334 12.669c2.542 5.082 7.735 8.292 13.417 8.292s10.875-3.21 13.417-8.292l6.334-12.669c5.872-11.743 17.676-19.039 30.806-19.039 18.992 0 34.443 15.451 34.443 34.442 0 16.481-5.446 32.819-15.334 46.004l-11.666 15.554c-1.947 2.597-3 5.754-3 9v31.295l-55 31.429-55-31.429v-31.295c0-3.246-1.053-6.403-3-9l-11.666-15.554c-9.888-13.184-15.334-29.522-15.334-46.004 0-18.991 15.451-34.442 34.443-34.442 13.13 0 24.934 7.296 30.806 19.039zm-205.662 288.369c4.79-63.404 38.643-120.949 92.607-156.144 4.246-2.77 6.806-7.495 6.806-12.564 0-22.966-9.952-44.553-27.304-59.226-42.198-35.681-67.959-86.356-72.104-140.874 46.592 3.584 90.842 23.125 124.906 55.176-9.055 11.099-14.498 25.257-14.498 40.666 0 22.931 7.577 45.661 21.334 64.004l8.666 11.554v31.751l-37.206 81.853c-8.827 19.418-15.888 39.341-21.164 59.673-25.281 13.72-53.28 21.944-82.043 24.131zm284.413 25.592c-3.858-2.894-8.872-3.756-13.472-2.317-4.603 1.438-8.233 5-9.758 9.574-5.573 16.719-15.971 31.144-30.068 41.717l-5.702 4.276-5.702-4.276c-14.098-10.573-24.495-24.998-30.068-41.717-1.524-4.574-5.155-8.137-9.758-9.574-4.603-1.438-9.615-.576-13.472 2.317-19.103 14.327-41.963 23.357-65.632 26.107 1.982-42.648 11.96-83.981 29.736-123.089l31.741-69.831 55.712 31.836c2.306 1.317 4.874 1.977 7.442 1.977s5.136-.659 7.442-1.977l55.712-31.836 31.741 69.831c17.776 39.107 27.754 80.44 29.736 123.089-23.667-2.75-46.527-11.78-65.63-26.107zm84.37-49.723c-5.276-20.332-12.337-40.255-21.164-59.673l-37.206-81.853v-31.751l8.666-11.554c13.757-18.342 21.334-41.073 21.334-64.004 0-15.409-5.443-29.567-14.498-40.667 34.064-32.05 78.314-51.592 124.906-55.176-4.146 54.519-29.906 105.193-72.104 140.875-17.352 14.673-27.304 36.26-27.304 59.226 0 5.069 2.56 9.795 6.806 12.564 53.964 35.194 87.817 92.739 92.607 156.144-28.763-2.187-56.762-10.411-82.043-24.131z"/></g></svg>