<svg id="Capa_1" enable-background="new 0 0 512.001 512.001" height="512" viewBox="0 0 512.001 512.001" width="512" xmlns="http://www.w3.org/2000/svg"><g><path d="m494.558 149.936c-15.216-26.535-35.046-50.155-58.938-70.205-49.607-41.628-113.398-64.554-179.62-64.554-66.221 0-130.012 22.926-179.622 64.554-23.891 20.05-43.72 43.67-58.937 70.205-12.815 22.347-18.761 47.628-17.197 73.11 1.561 25.409 10.516 49.848 25.897 70.673l98.322 133.115v16.31c0 29.599 25.028 53.68 55.792 53.68h151.489c30.764 0 55.792-24.081 55.792-53.68v-16.31l98.322-133.115c15.382-20.825 24.337-45.264 25.896-70.673 1.567-25.483-4.38-50.764-17.196-73.11zm-223.558 256.959v-361.267c42.742 2.502 83.828 15.648 119.211 38.009l-89.724 323.258zm-59.486 0-89.724-323.259c35.384-22.36 76.47-35.505 119.21-38.008v361.267zm-168.048-242.035c13.456-23.464 31.018-44.374 52.197-62.148.077-.065.156-.127.234-.192l84.483 304.375h-33.347l-96.76-131c-24.473-33.134-27.082-75.68-6.807-111.035zm314.071 278.284c0 13.057-11.57 23.68-25.792 23.68h-151.489c-14.222 0-25.792-10.623-25.792-23.68v-6.249h203.072v6.249zm104.191-167.249-96.76 131h-33.347l84.482-304.375c.077.064.156.126.233.191 21.18 17.774 38.742 38.685 52.198 62.148 20.275 35.355 17.668 77.901-6.806 111.036z"/></g></svg>