<?xml version="1.0" encoding="iso-8859-1"?>
<!-- Generator: Adobe Illustrator 19.0.0, SVG Export Plug-In . SVG Version: 6.00 Build 0)  -->
<svg version="1.1" id="Capa_1" xmlns="http://www.w3.org/2000/svg" xmlns:xlink="http://www.w3.org/1999/xlink" x="0px" y="0px"
	 viewBox="0 0 512 512" style="enable-background:new 0 0 512 512;" xml:space="preserve">
<g>
	<g>
		<g>
			<path d="M469.333,293.716c0-37.756-14.422-82.884-39.502-124.442c12.192-36.799,1.17-82.099-10.606-114.229
				c-3.235-7.542-10.667-12.417-18.873-12.379c-8.206,0.037-15.594,4.979-18.76,12.55c-4.269,13.059-11,25.18-19.828,35.708
				c-17.559-13.896-37.364-24.689-58.559-31.913l-25.888-45.753C273.312,5.135,265.039-0.006,255.983,0
				c-9.056,0.006-17.322,5.159-21.316,13.287l-25.872,45.724c-21.195,7.224-41,18.017-58.559,31.913
				c-8.828-10.528-15.558-22.649-19.828-35.708c-2.924-7.743-10.435-12.782-18.708-12.55c-8.275-0.228-15.82,4.709-18.925,12.383
				c-11.776,32.126-22.798,77.425-10.606,114.224c-25.08,41.558-39.502,86.686-39.502,124.442
				c0.555,40.896,17.091,79.952,46.072,108.813C80.874,426.826,76.846,452.2,76.8,477.737c0,5.979,2.975,17.246,22.833,25.508
				c11.578,4.616,23.806,7.392,36.242,8.229l4.542,0.25c2.833,0.183,5.75,0.275,8.917,0.275c1.259,0,2.492-0.158,3.751-0.188
				c0.18,0.011,0.333,0.104,0.516,0.104c0.288-0.042,0.573-0.099,0.855-0.172c8.81-0.2,17.586-1.167,26.229-2.89
				c2.55-0.475,5.117-1.137,7.475-1.8c9.018-2.142,17.456-6.238,24.717-12c5.48-4.1,8.79-10.476,8.991-17.316
				c0.009-0.592-0.036-1.183-0.133-1.766c-0.155-1.472-0.43-4.681-0.728-9.041c23.221,3.204,46.771,3.204,69.992,0
				c-0.291,4.296-0.553,7.389-0.672,8.582c-0.127,0.735-0.191,1.479-0.192,2.225c0.172,6.746,3.4,13.049,8.775,17.129
				c1.186,1.059,2.444,2.034,3.767,2.917c6.509,4.207,13.653,7.337,21.158,9.271c2.367,0.663,4.933,1.325,7.275,1.758
				c8.51,1.767,17.155,2.804,25.842,3.1l5.975,0.087c2.908,0,5.825-0.092,8.892-0.287l4.55-0.258
				c12.324-0.842,24.442-3.6,35.917-8.175c3.764-1.523,7.352-3.449,10.7-5.746c7.211-4.053,11.827-11.533,12.216-19.796
				c-0.046-25.538-4.074-50.912-11.938-75.209C452.242,373.668,468.778,334.612,469.333,293.716z M249.5,21.725
				c1.044-2.67,3.615-4.43,6.482-4.436c2.867-0.006,5.446,1.742,6.502,4.407l17.908,31.651c-16.147-2.729-32.637-2.729-48.783,0
				L249.5,21.725z M201.725,482.137c-5.402,4.061-11.593,6.95-18.175,8.483c-1.9,0.538-3.95,1.075-6.208,1.5
				c-4.652,0.967-9.355,1.673-14.086,2.116c0.844-3.81,2.553-7.375,4.995-10.42c3.257-3.364,3.195-8.723-0.138-12.011
				c-3.333-3.288-8.693-3.275-12.011,0.028c-5.676,6.473-9.276,14.502-10.334,23.045c-1.489-0.042-3.016-0.106-4.658-0.208
				l-4.008-0.217c-6.049-0.511-12.054-1.464-17.964-2.849c-0.908-5.736,1.141-11.543,5.447-15.439c3.757-2.81,4.54-8.125,1.755-11.9
				c-2.785-3.775-8.095-4.594-11.888-1.833c-6.979,5.797-11.389,14.112-12.273,23.141c-5.974-3.18-8.31-6.295-8.31-7.837
				c0.052-21.017,3-41.927,8.761-62.139c29.126,24.315,63.878,40.948,101.084,48.38c0.417,6.897,0.842,11.759,1.088,13.759
				C204.37,479.541,203.271,481.113,201.725,482.137z M413.225,483.537c-1.09,0.756-2.225,1.445-3.399,2.061
				c-0.879-9.038-5.291-17.363-12.276-23.165c-3.756-2.719-9-1.913-11.767,1.808c-2.786,3.751-2.069,9.04,1.617,11.913
				c4.32,3.896,6.376,9.713,5.463,15.458c-5.831,1.37-11.754,2.313-17.721,2.821l-4.658,0.258c-1.344,0.086-2.839,0.092-4.259,0.132
				c-1.066-8.523-4.662-16.531-10.324-22.99c-3.286-3.284-8.605-3.304-11.917-0.046c-3.334,3.274-3.442,8.612-0.242,12.017
				c2.433,3.028,4.139,6.573,4.986,10.364c-4.794-0.437-9.56-1.134-14.278-2.089c-2.05-0.383-4.1-0.921-5.967-1.446
				c-5.731-1.443-11.196-3.788-16.192-6.946c-0.75-0.498-1.463-1.049-2.133-1.65c-1.483-0.986-2.53-2.505-2.925-4.242
				c0.22-2.045,0.64-6.918,1.055-13.818c37.206-7.432,71.958-24.064,101.084-48.379c5.762,20.212,8.71,41.122,8.761,62.139
				C418.133,478.9,416.858,481.025,413.225,483.537z M264.533,452.091V435.2c0-4.713-3.82-8.533-8.533-8.533
				s-8.533,3.82-8.533,8.533v16.892C143.188,448.466,59.733,378.83,59.733,293.716c0-35.101,13.777-77.562,37.763-116.861
				c2.187-2.111,3.067-5.237,2.302-8.179c-0.036-0.193-0.051-0.38-0.101-0.57c-0.058-0.183-0.027-0.371-0.098-0.553
				c-12.758-32.567-2.042-75.958,9.191-106.625c0.292-0.779,1.642-1.196,2.784-1.196c1.1-0.021,2.483,0.417,2.75,1.175
				c5.526,17.726,15.372,33.799,28.653,46.774l0.039,0.072c0.062,0.076,0.155,0.105,0.22,0.179
				c7.223,6.664,16.07,11.314,25.655,13.484c2.987,0.647,6.091-0.353,8.139-2.622c2.048-2.268,2.726-5.458,1.779-8.364
				s-3.376-5.082-6.368-5.707c-2.821-0.617-5.557-1.575-8.147-2.852c15.904-12.161,33.768-21.516,52.822-27.665
				c25.323-7.883,52.444-7.883,77.767,0c19.053,6.148,36.917,15.504,52.822,27.665c-2.59,1.277-5.326,2.235-8.147,2.852
				c-2.991,0.625-5.42,2.801-6.368,5.707s-0.269,6.095,1.779,8.364c2.048,2.268,5.152,3.268,8.139,2.622
				c9.606-2.176,18.47-6.842,25.702-13.529c0.05-0.057,0.125-0.075,0.173-0.134l0.039-0.072
				c13.281-12.975,23.127-29.048,28.653-46.773c0.267-0.754,1.6-1.167,2.725-1.175c0.825,0.1,2.508,0.412,2.808,1.192
				c11.233,30.671,21.95,74.063,9.192,106.629c-0.071,0.182-0.04,0.369-0.098,0.553c-0.049,0.19-0.064,0.377-0.1,0.57
				c-0.765,2.942,0.115,6.068,2.302,8.179c23.986,39.299,37.763,81.76,37.763,116.861
				C452.267,378.83,368.812,448.466,264.533,452.091z"/>
			<path d="M426.225,278.9c-2.981-8.035-9.148-14.482-17.042-17.817c-12.541-4.149-26.274-2.558-37.533,4.35
				c-33.917,16.958-49.401,24.7-115.651,24.7s-81.733-7.742-115.65-24.7c-11.26-6.908-24.992-8.5-37.533-4.35
				c-7.894,3.335-14.061,9.782-17.042,17.817c-0.973,2.893-0.326,6.086,1.697,8.372c2.023,2.286,5.113,3.317,8.103,2.704
				s5.425-2.778,6.384-5.676c1.442-3.322,4.08-5.98,7.392-7.446c6.552-1.804,13.547-1.013,19.531,2.206l5.027,30.173
				c0.996,6.332,5.473,11.563,11.575,13.525c1.712,0.555,3.5,0.839,5.3,0.842c4.507-0.001,8.829-1.797,12.008-4.992l12.95-12.949
				l7.484,20.795c2.229,5.889,7.496,10.09,13.733,10.954c6.595,1.114,13.282-1.383,17.533-6.546l14.75-17.546l12.125,20.213
				c3.083,5.141,8.638,8.287,14.633,8.287s11.55-3.146,14.633-8.287l8.576-14.292l9.616,11.442
				c3.559,4.434,8.948,7.001,14.633,6.971c1.021,0,2.041-0.081,3.05-0.242c6.254-0.87,11.531-5.093,13.75-11.004l7.497-20.715
				l12.919,12.919c3.18,3.195,7.501,4.991,12.008,4.992c1.8-0.003,3.588-0.287,5.3-0.842c6.086-1.952,10.557-7.16,11.567-13.471
				l4.313-25.885c1.775-0.882,3.566-1.776,5.42-2.703c6.869-4.409,15.238-5.826,23.175-3.925c3.444,1.439,6.182,4.179,7.617,7.625
				c1.539,4.431,6.368,6.788,10.808,5.276C425.324,288.163,427.711,283.349,426.225,278.9z M150.75,306.479l-3.072-18.444
				c5.035,2.381,9.956,4.571,15.01,6.526L150.75,306.479z M201.275,320.071c-0.268,0.301-0.647,0.481-1.05,0.5l-0.242,0.013
				c-0.467-0.004-0.767-0.117-0.717,0.029l-6.371-17.706c6.174,1.099,12.941,1.999,20.549,2.679L201.275,320.071z M256,324.746
				l-10.583-17.638c3.418,0.051,6.891,0.092,10.583,0.092s7.166-0.041,10.583-0.092L256,324.746z M304.341,320.371
				c-0.337,0.18-0.721,0.25-1.1,0.2c-0.48-0.042-0.918-0.292-1.2-0.683l-11.486-13.669c7.192-0.468,13.631-1.116,19.571-1.909
				L304.341,320.371z M352.741,306.541l-9.705-9.705c4.143-1.41,8.13-2.952,12.078-4.634L352.741,306.541z"/>
			<path d="M141.25,178.3l3.314,1.657c-9.349,12.985-10.635,30.113-3.331,44.349c7.304,14.236,21.967,23.181,37.968,23.161
				c18.59-0.066,34.989-12.185,40.51-29.937l6.873,3.437c4.214,2.094,9.328,0.383,11.432-3.826
				c2.104-4.209,0.405-9.327-3.799-11.441l-85.333-42.667c-2.728-1.372-5.982-1.182-8.531,0.498s-4.007,4.596-3.822,7.644
				S138.515,176.94,141.25,178.3z M160.198,187.774l44.095,22.047c-1.826,8.91-8.244,16.181-16.858,19.099
				c-0.631-4.06-4.127-7.054-8.235-7.054c-4.108,0-7.604,2.994-8.235,7.054c-8.144-2.709-14.366-9.351-16.539-17.654
				C152.254,202.963,154.425,194.125,160.198,187.774z"/>
			<path d="M273.503,210.634c-0.716,2.147-0.549,4.491,0.463,6.516c2.109,4.214,7.234,5.923,11.45,3.817l6.873-3.437
				c5.025,16.079,19.061,27.68,35.798,29.589c16.737,1.909,33.025-6.235,41.54-20.77s7.656-32.725-2.192-46.392l3.314-1.657
				c4.204-2.114,5.903-7.232,3.798-11.441c-2.104-4.209-7.218-5.92-11.432-3.826L277.784,205.7
				C275.759,206.712,274.219,208.487,273.503,210.634z M351.802,187.774c4.242,4.656,6.594,10.727,6.598,17.026
				c-0.036,10.926-7.015,20.62-17.365,24.12c-0.631-4.06-4.127-7.054-8.235-7.054s-7.604,2.994-8.235,7.054
				c-8.614-2.918-15.032-10.189-16.858-19.099L351.802,187.774z"/>
			<path d="M287.635,151.101c1.6-1.6,2.499-3.771,2.499-6.035c0.001-2.263-0.898-4.434-2.499-6.035
				c-1.6-1.6-3.771-2.499-6.035-2.499h-51.2c-4.713,0-8.533,3.82-8.533,8.533s3.821,8.533,8.533,8.533h51.2
				C283.863,153.6,286.034,152.701,287.635,151.101z"/>
			<path d="M204.8,119.466h102.4c4.713,0,8.533-3.82,8.533-8.533s-3.82-8.533-8.533-8.533H204.8c-4.713,0-8.533,3.82-8.533,8.533
				S200.087,119.466,204.8,119.466z"/>
			<path d="M230.4,256v8.533c0,4.713,3.82,8.533,8.533,8.533s8.533-3.82,8.533-8.533V256c0-4.713-3.82-8.533-8.533-8.533
				S230.4,251.287,230.4,256z"/>
			<path d="M273.067,273.066c2.263,0.001,4.434-0.898,6.035-2.499c1.6-1.6,2.499-3.771,2.499-6.035V256
				c0-4.713-3.82-8.533-8.533-8.533s-8.533,3.82-8.533,8.533v8.533c-0.001,2.263,0.898,4.434,2.499,6.035
				C268.632,272.168,270.803,273.067,273.067,273.066z"/>
		</g>
	</g>
</g>
<g>
</g>
<g>
</g>
<g>
</g>
<g>
</g>
<g>
</g>
<g>
</g>
<g>
</g>
<g>
</g>
<g>
</g>
<g>
</g>
<g>
</g>
<g>
</g>
<g>
</g>
<g>
</g>
<g>
</g>
</svg>
