<?xml version="1.0" encoding="iso-8859-1"?>
<!-- Generator: Adobe Illustrator 19.0.0, SVG Export Plug-In . SVG Version: 6.00 Build 0)  -->
<svg version="1.1" id="Capa_1" xmlns="http://www.w3.org/2000/svg" xmlns:xlink="http://www.w3.org/1999/xlink" x="0px" y="0px"
	 viewBox="0 0 496 496" style="enable-background:new 0 0 496 496;" xml:space="preserve">
<g>
	<g>
		<path d="M248,224c-13.232,0-24,10.768-24,24s10.768,24,24,24s24-10.768,24-24S261.232,224,248,224z M248,256c-4.408,0-8-3.584-8-8
			c0-4.416,3.592-8,8-8s8,3.584,8,8S252.408,256,248,256z"/>
	</g>
</g>
<g>
	<g>
		<path d="M101.92,133.384C38.096,150.632,0,205.44,0,280h16c0-66.888,33.672-115.92,90.088-131.16L101.92,133.384z"/>
	</g>
</g>
<g>
	<g>
		<path d="M231.664,162.352C215.992,146.68,188.064,128,144,128c-5.688,0-11.336,0.272-16.792,0.816l1.576,15.92
			C133.72,144.248,138.832,144,144,144c73.208,0,95.6,56.432,96.52,58.832l14.976-5.64
			C255.224,196.472,248.688,179.376,231.664,162.352z"/>
	</g>
</g>
<g>
	<g>
		<path d="M94.184,421.032l-12.368,10.136c4.144,5.056,8.664,10.04,13.448,14.824l11.312-11.312
			C102.168,430.264,97.992,425.672,94.184,421.032z"/>
	</g>
</g>
<g>
	<g>
		<path d="M63.6,358.496l-15.712,3.016c3.896,20.336,12.496,40.08,25.56,58.672l13.096-9.2
			C74.792,394.248,67.072,376.592,63.6,358.496z"/>
	</g>
</g>
<g>
	<g>
		<path d="M61.816,328.584l-15.96-1.16c-0.408,5.664-0.44,11.4-0.104,17.056l15.968-0.952
			C61.424,338.568,61.456,333.536,61.816,328.584z"/>
	</g>
</g>
<g>
	<g>
		<path d="M434.672,389.424c-28.776,28.776-61.832,44.344-95.624,45.032c-33.168,0.944-64.616-12.936-91.056-39.376
			c-51.768-51.768-27.696-107.504-26.648-109.848l-7.296-3.288l-7.28-3.312c-0.32,0.704-7.792,17.416-7.792,41.504
			c0,22.16,6.536,55.112,37.696,86.264c28.88,28.88,63.4,44.096,99.992,44.096c0.904,0,1.8-0.016,2.704-0.032
			c38-0.776,74.856-17.968,106.608-49.72L434.672,389.424z"/>
	</g>
</g>
<g>
	<g>
		<path d="M480,216c0,5.2-0.208,10.368-0.616,15.344l15.944,1.312C495.776,227.24,496,221.64,496,216H480z"/>
	</g>
</g>
<g>
	<g>
		<path d="M477.456,246.64c-5.568,32.208-20.288,59.016-42.568,77.512l10.216,12.312c25.248-20.96,41.888-51.08,48.12-87.096
			L477.456,246.64z"/>
	</g>
</g>
<g>
	<g>
		<path d="M400.728,50.008L389.416,61.32c4.408,4.408,8.576,9,12.4,13.656l12.368-10.152
			C410.032,59.768,405.504,54.784,400.728,50.008z"/>
	</g>
</g>
<g>
	<g>
		<path d="M422.544,75.824l-13.096,9.2c30.392,43.256,33.224,92.416,7.768,134.856l13.72,8.232
			C459.8,180,456.736,124.496,422.544,75.824z"/>
	</g>
</g>
<g>
	<g>
		<path d="M409.592,231.264c-4.296,5.776-9.176,11.4-14.504,16.736c-51.768,51.768-107.504,27.696-109.856,26.648l-3.288,7.288
			l-3.312,7.28c0.704,0.32,17.416,7.792,41.496,7.792c22.16,0,55.112-6.536,86.264-37.696c5.88-5.88,11.272-12.104,16.032-18.488
			L409.592,231.264z"/>
	</g>
</g>
<g>
	<g>
		<path d="M216,0v16c5.16,0,10.32,0.2,15.352,0.616l1.296-15.952C227.184,0.224,221.584,0,216,0z"/>
	</g>
</g>
<g>
	<g>
		<path d="M249.368,2.776l-2.728,15.76c16.696,2.88,31.976,8.216,45.416,15.84l7.896-13.896
			C284.904,11.936,267.88,5.976,249.368,2.776z"/>
	</g>
</g>
<g>
	<g>
		<path d="M366.288,120.944c-5.048-36.696-21.92-67.44-49.336-89.056l-9.904,12.56c23.824,18.784,38.6,45.568,43.256,77.64
			C341.896,125.816,336,134.224,336,144c0,9.68,5.792,17.992,14.064,21.784c-9.728,55.944-54.896,73.976-56.896,74.736L296,248
			l2.808,7.496c2.376-0.896,56.44-22.096,67.224-88.352C376.336,164.44,384,155.136,384,144
			C384,132.952,376.456,123.72,366.288,120.944z M360,152c-4.408,0-8-3.584-8-8s3.592-8,8-8c4.408,0,8,3.584,8,8
			S364.408,152,360,152z"/>
	</g>
</g>
<g>
	<g>
		<path d="M157.592,45.696C153.72,37.632,145.536,32,136,32c-12.624,0-22.896,9.832-23.824,22.232
			c-22.184,8.224-43.088,21.952-62.168,41.04l11.32,11.304c17.04-17.04,35.528-29.376,55.04-36.856C120.704,75.92,127.872,80,136,80
			c11.272,0,20.68-7.832,23.248-18.328c29.936,0,58.64,11.592,83.368,34.104l10.776-11.832
			C225.192,58.248,192.192,45.248,157.592,45.696z M136,64c-4.408,0-8-3.584-8-8s3.592-8,8-8s8,3.584,8,8S140.408,64,136,64z"/>
	</g>
</g>
<g>
	<g>
		<path d="M267.816,98.832L255.6,109.16c41.704,49.328,20,99.504,19.056,101.608l14.576,6.6
			C290.344,214.896,316.216,156.088,267.816,98.832z"/>
	</g>
</g>
<g>
	<g>
		<path d="M419.936,334.64c-15.768,9.28-33.872,14.68-53.68,16.496C362.72,342.288,354.096,336,344,336
			c-9.08,0-16.904,5.128-20.984,12.592c-50.344-12.184-66.84-53.584-67.536-55.416L248,296l-7.496,2.816
			c0.816,2.176,20.224,51.744,79.936,65.584c2.08,11.128,11.832,19.6,23.56,19.6c10.664,0,19.616-7.032,22.736-16.672
			c22.592-1.928,43.216-8.24,61.32-18.904L419.936,334.64z M344,368c-4.408,0-8-3.584-8-8c0-4.416,3.592-8,8-8c4.408,0,8,3.584,8,8
			C352,364.416,348.408,368,344,368z"/>
	</g>
</g>
<g>
	<g>
		<path d="M135.992,206.24C131.736,202.4,126.168,200,120,200c-13.232,0-24,10.768-24,24c0,2.064,0.344,4.04,0.84,5.96
			c-2.464,2.16-4.888,4.384-7.232,6.728c-21.48,21.48-35.776,46.952-41.36,73.68l15.664,3.264
			C68.856,289.96,81.656,267.264,100.92,248c1.632-1.64,3.392-3.04,5.096-4.576C109.968,246.272,114.768,248,120,248
			c13.232,0,24-10.768,24-24c0-1.208-0.184-2.368-0.36-3.528c36.2-12.52,66.816,0.752,67.128,0.88l6.6-14.568
			C215.808,206.072,179.44,190.056,135.992,206.24z M120,232c-4.408,0-8-3.584-8-8s3.592-8,8-8s8,3.584,8,8S124.408,232,120,232z"/>
	</g>
</g>
<g>
	<g>
		<rect x="176" y="392" width="16" height="16"/>
	</g>
</g>
<g>
	<g>
		<rect x="304" y="96" width="16" height="16"/>
	</g>
</g>
<g>
	<g>
		<rect x="16" width="16" height="16"/>
	</g>
</g>
<g>
	<g>
		<rect y="16" width="16" height="16"/>
	</g>
</g>
<g>
	<g>
		<rect y="112" width="16" height="16"/>
	</g>
</g>
<g>
	<g>
		<rect x="480" y="80" width="16" height="16"/>
	</g>
</g>
<g>
	<g>
		<rect x="40" y="216" width="16" height="16"/>
	</g>
</g>
<g>
	<g>
		<rect x="104" y="280" width="16" height="16"/>
	</g>
</g>
<g>
	<g>
		<rect x="328" y="400" width="16" height="16"/>
	</g>
</g>
<g>
	<g>
		<rect x="384" y="176" width="16" height="16"/>
	</g>
</g>
<g>
	<g>
		<path d="M180.6,444.12c2.104-3.568,3.4-7.68,3.4-12.12c0-13.232-10.768-24-24-24c-1.56,0-3.08,0.176-4.56,0.464
			C147.848,391.568,144,372.624,144,352c0-73.2,56.432-95.6,58.832-96.512L200,248l-2.808-7.496
			c-0.72,0.272-17.824,6.808-34.848,23.832C146.672,280.008,128,307.936,128,352c0,23.6,4.616,45.32,13.656,64.712
			C138.176,420.872,136,426.16,136,432c0,13.232,10.768,24,24,24c2.896,0,5.632-0.592,8.2-1.536
			C195.696,481.608,234.296,496,280,496v-16C239.224,480,204.968,467.544,180.6,444.12z M160,440c-4.408,0-8-3.584-8-8
			c0-4.416,3.592-8,8-8s8,3.584,8,8C168,436.416,164.408,440,160,440z"/>
	</g>
</g>
<g>
	<g>
		<rect x="152" y="88" width="16" height="16"/>
	</g>
</g>
<g>
	<g>
		<rect x="16" y="32" width="16" height="16"/>
	</g>
</g>
<g>
	<g>
		<rect x="32" y="16" width="16" height="16"/>
	</g>
</g>
<g>
	<g>
		<rect x="464" width="16" height="16"/>
	</g>
</g>
<g>
	<g>
		<rect x="448" y="16" width="16" height="16"/>
	</g>
</g>
<g>
	<g>
		<rect x="464" y="32" width="16" height="16"/>
	</g>
</g>
<g>
	<g>
		<rect x="480" y="16" width="16" height="16"/>
	</g>
</g>
<g>
	<g>
		<rect x="416" y="448" width="16" height="16"/>
	</g>
</g>
<g>
	<g>
		<rect x="400" y="464" width="16" height="16"/>
	</g>
</g>
<g>
	<g>
		<rect x="416" y="480" width="16" height="16"/>
	</g>
</g>
<g>
	<g>
		<rect x="432" y="464" width="16" height="16"/>
	</g>
</g>
<g>
	<g>
		<rect x="16" y="408" width="16" height="16"/>
	</g>
</g>
<g>
	<g>
		<rect y="424" width="16" height="16"/>
	</g>
</g>
<g>
	<g>
		<rect x="16" y="440" width="16" height="16"/>
	</g>
</g>
<g>
	<g>
		<rect x="32" y="424" width="16" height="16"/>
	</g>
</g>
<g>
</g>
<g>
</g>
<g>
</g>
<g>
</g>
<g>
</g>
<g>
</g>
<g>
</g>
<g>
</g>
<g>
</g>
<g>
</g>
<g>
</g>
<g>
</g>
<g>
</g>
<g>
</g>
<g>
</g>
</svg>
